<svg width="64" height="64" viewBox="0 0 64 64" fill="none" xmlns="http://www.w3.org/2000/svg">
  <!-- Cap -->
  <path d="M44 24C44 24 44 16 32 16C20 16 20 24 20 24H44Z" fill="white" stroke="#333" stroke-width="1.5"/>
  <path d="M18 24H46L44 28H20L18 24Z" fill="#333" stroke="#333" stroke-width="1.5"/>
  <circle cx="32" cy="20" r="2" fill="#FFD700" stroke="#333" stroke-width="0.5"/>
  
  <!-- Face/Head -->
  <path d="M32 46C26 46 22 41 22 34C22 28 26 24 32 24C38 24 42 28 42 34C42 41 38 46 32 46Z" fill="white" stroke="#333" stroke-width="1.5"/>
  
  <!-- Uniform/Shoulders -->
  <path d="M12 56C12 50 16 46 22 46H42C48 46 52 50 52 56V60H12V56Z" fill="white" stroke="#333" stroke-width="1.5"/>
  <path d="M32 46V60" stroke="#333" stroke-width="1.5"/>
  <circle cx="32" cy="52" r="3" fill="white" stroke="#00A8E1" stroke-width="1"/>
  <path d="M30 52L32 54L34 50" stroke="#00A8E1" stroke-width="1" stroke-linecap="round" stroke-linejoin="round"/>
</svg>
